<svg xmlns="http://www.w3.org/2000/svg" height="573pt" version="1.1" viewBox="0 0 573.20044 573" width="573pt">
<g id="surface1">
<path d="M 572.214844 286.207031 C 572.214844 444.222656 444.121094 572.316406 286.109375 572.316406 C 128.09375 572.316406 0 444.222656 0 286.207031 C 0 128.195312 128.09375 0.101562 286.109375 0.101562 C 444.121094 0.101562 572.214844 128.195312 572.214844 286.207031 Z M 572.214844 286.207031 " style=" stroke:none;fill-rule:nonzero;fill:rgb(94.117647%,39.607843%,16.078431%);fill-opacity:1;" />
<path d="M 463.632812 61.929688 C 463.632812 62.699219 463.691406 63.457031 463.691406 64.226562 C 463.671875 280.089844 306.746094 463.921875 93.566406 497.832031 C 210.050781 604.597656 391.03125 596.726562 497.800781 480.25 C 604.566406 363.773438 596.703125 182.777344 480.21875 76.007812 C 474.871094 71.101562 469.335938 66.40625 463.632812 61.929688 Z M 463.632812 61.929688 " style=" stroke:none;fill-rule:nonzero;fill:rgb(87.843137%,33.72549%,10.196078%);fill-opacity:1;" />
<path d="M 365.035156 453.925781 C 343.242188 453.925781 325.570312 436.257812 325.570312 414.464844 C 325.570312 392.671875 343.242188 375 365.035156 375 C 386.828125 375 404.496094 392.671875 404.496094 414.464844 C 404.496094 436.257812 386.828125 453.925781 365.035156 453.925781 Z M 365.035156 394.730469 C 354.132812 394.730469 345.304688 403.5625 345.304688 414.460938 C 345.304688 425.363281 354.132812 434.195312 365.035156 434.195312 C 375.9375 434.195312 384.765625 425.363281 384.765625 414.460938 C 384.765625 403.5625 375.9375 394.730469 365.035156 394.730469 Z M 365.035156 394.730469 " style=" stroke:none;fill-rule:nonzero;fill:rgb(83.137255%,29.019608%,5.882353%);fill-opacity:1;" />
<path d="M 270.078125 254.449219 C 303.777344 281.335938 345.597656 296.003906 388.714844 296.074219 L 571.96875 296.074219 C 572.078125 292.789062 572.21875 289.511719 572.21875 286.207031 C 572.21875 282.902344 572.078125 279.625 571.96875 276.34375 L 388.710938 276.34375 C 350.066406 276.292969 312.589844 263.140625 282.378906 239.039062 C 248.6875 212.152344 206.875 197.484375 163.773438 197.414062 L 14.117188 197.414062 C 12.007812 203.898438 10.113281 210.476562 8.445312 217.144531 L 163.773438 217.144531 C 202.40625 217.195312 239.878906 230.347656 270.078125 254.449219 Z M 270.078125 254.449219 " style=" stroke:none;fill-rule:nonzero;fill:rgb(83.137255%,29.019608%,5.882353%);fill-opacity:1;" />
<path d="M 75.078125 323.796875 L 89.335938 302.664062 C 104.734375 279.953125 130.417969 266.386719 157.851562 266.476562 C 201.113281 266.21875 236.425781 301.035156 236.78125 344.296875 C 236.550781 360.566406 229.449219 375.976562 217.234375 386.722656 C 202.523438 402.011719 180.574219 407.921875 160.179688 402.082031 C 144.207031 396.6875 132.417969 383.0625 129.371094 366.488281 C 126.714844 350.867188 134.34375 335.289062 148.3125 327.820312 C 157.230469 322.207031 168.496094 321.882812 177.730469 326.964844 C 185.722656 331.601562 190.675781 340.113281 190.746094 349.347656 L 210.476562 349.347656 C 210.40625 333.078125 201.726562 318.0625 187.667969 309.886719 C 172.394531 301.164062 153.589844 301.449219 138.59375 310.625 C 117.292969 322.179688 105.769531 346.0625 109.984375 369.929688 C 114.292969 393.558594 131.074219 413.003906 153.828125 420.71875 C 160.839844 423.113281 168.203125 424.339844 175.609375 424.328125 C 196.109375 423.746094 215.664062 415.539062 230.445312 401.3125 C 246.789062 386.839844 256.261719 366.128906 256.507812 344.296875 C 256.144531 290.144531 212.003906 246.507812 157.851562 246.742188 C 123.863281 246.664062 92.066406 263.484375 73.003906 291.625 L 58.730469 312.746094 C 49.503906 326.371094 34.105469 334.5 17.648438 334.449219 L 4.132812 334.449219 C 5.257812 341.101562 6.609375 347.679688 8.1875 354.179688 L 17.648438 354.179688 C 40.65625 354.242188 62.183594 342.847656 75.078125 323.796875 Z M 75.078125 323.796875 " style=" stroke:none;fill-rule:nonzero;fill:rgb(83.137255%,29.019608%,5.882353%);fill-opacity:1;" />
<path d="M 284.765625 379.046875 C 263.613281 424.625 217.976562 453.828125 167.71875 453.925781 L 167.71875 473.65625 C 225.671875 473.550781 278.292969 439.867188 302.683594 387.300781 C 314.511719 361.789062 340.054688 345.453125 368.171875 345.402344 L 566.050781 345.402344 C 567.410156 338.910156 568.527344 332.320312 569.445312 325.671875 L 368.183594 325.671875 C 332.367188 325.730469 299.832031 346.546875 284.765625 379.046875 Z M 284.765625 379.046875 " style=" stroke:none;fill-rule:nonzero;fill:rgb(83.137255%,29.019608%,5.882353%);fill-opacity:1;" />
<path d="M 125.484375 522.988281 L 446.734375 522.988281 C 455.652344 516.902344 464.214844 510.308594 472.386719 503.257812 L 99.8125 503.257812 C 107.992188 510.308594 116.5625 516.898438 125.484375 522.988281 Z M 125.484375 522.988281 " style=" stroke:none;fill-rule:nonzero;fill:rgb(83.137255%,29.019608%,5.882353%);fill-opacity:1;" />
<path d="M 355.167969 197.414062 C 327.929688 197.414062 305.839844 175.324219 305.839844 148.085938 C 305.839844 120.847656 327.929688 98.757812 355.167969 98.757812 C 382.410156 98.757812 404.496094 120.847656 404.496094 148.085938 C 404.46875 175.316406 382.398438 197.375 355.167969 197.414062 Z M 355.167969 118.488281 C 338.820312 118.488281 325.570312 131.738281 325.570312 148.085938 C 325.570312 164.433594 338.820312 177.683594 355.167969 177.683594 C 371.515625 177.683594 384.765625 164.433594 384.765625 148.085938 C 384.765625 131.738281 371.515625 118.488281 355.167969 118.488281 Z M 355.167969 118.488281 " style=" stroke:none;fill-rule:nonzero;fill:rgb(83.137255%,29.019608%,5.882353%);fill-opacity:1;" />
<path d="M 279.054688 110.6875 C 299.824219 84.382812 331.519531 69.070312 365.035156 69.160156 L 365.035156 49.429688 C 325.492188 49.328125 288.101562 67.394531 263.605469 98.421875 C 243.703125 123.628906 213.328125 138.300781 181.203125 138.222656 L 41.210938 138.222656 C 37.332031 144.625 33.75 151.234375 30.355469 157.953125 L 181.207031 157.953125 C 219.347656 158.050781 255.425781 140.617188 279.054688 110.6875 Z M 279.054688 110.6875 " style=" stroke:none;fill-rule:nonzero;fill:rgb(83.137255%,29.019608%,5.882353%);fill-opacity:1;" />
<path d="M 437.105469 169.546875 C 436.847656 169.910156 436.621094 170.292969 436.421875 170.699219 C 419.265625 205.308594 383.929688 227.152344 345.304688 227.015625 L 345.304688 246.746094 C 391.148438 246.902344 433.148438 221.113281 453.75 180.152344 C 463.496094 166.238281 479.417969 157.953125 496.410156 157.953125 L 541.792969 157.953125 C 538.417969 151.234375 534.886719 144.625 530.941406 138.222656 L 496.410156 138.222656 C 472.679688 138.210938 450.472656 149.933594 437.105469 169.546875 Z M 437.105469 169.546875 " style=" stroke:none;fill-rule:nonzero;fill:rgb(83.137255%,29.019608%,5.882353%);fill-opacity:1;" />
<path d="M 277.871094 37.078125 C 289.945312 26.324219 303.71875 17.648438 318.644531 11.425781 L 338.917969 5.03125 C 324.859375 2.417969 310.625 0.847656 296.328125 0.347656 C 284.984375 6.414062 274.398438 13.785156 264.757812 22.308594 C 237.972656 46.144531 203.363281 59.304688 167.511719 59.292969 L 111.925781 59.292969 C 103.914062 65.460938 96.230469 72.050781 88.910156 79.027344 L 167.511719 79.027344 C 208.199219 79.035156 247.464844 64.109375 277.871094 37.078125 Z M 277.871094 37.078125 " style=" stroke:none;fill-rule:nonzero;fill:rgb(83.137255%,29.019608%,5.882353%);fill-opacity:1;" />
</g>
</svg>