<svg xmlns="http://www.w3.org/2000/svg" height="573pt" version="1.1" viewBox="0 0 573.20044 573" width="573pt">
<g id="surface1">
<path d="M 572.214844 286.207031 C 572.214844 444.222656 444.121094 572.316406 286.109375 572.316406 C 128.09375 572.316406 0 444.222656 0 286.207031 C 0 128.195312 128.09375 0.101562 286.109375 0.101562 C 444.121094 0.101562 572.214844 128.195312 572.214844 286.207031 Z M 572.214844 286.207031 " style=" stroke:none;fill-rule:nonzero;fill:rgb(16.470588%,56.470588%,87.058824%);fill-opacity:1;" />
<path d="M 463.632812 61.929688 C 463.632812 62.699219 463.691406 63.457031 463.691406 64.226562 C 463.671875 280.089844 306.746094 463.921875 93.566406 497.832031 C 210.050781 604.597656 391.03125 596.726562 497.800781 480.25 C 604.566406 363.773438 596.703125 182.777344 480.21875 76.007812 C 474.871094 71.101562 469.335938 66.40625 463.632812 61.929688 Z M 463.632812 61.929688 " style=" stroke:none;fill-rule:nonzero;fill:rgb(13.72549%,47.45098%,72.941176%);fill-opacity:1;" />
<path d="M 177.585938 296.074219 L 138.121094 246.746094 L 69.0625 246.746094 L 69.0625 335.539062 L 118.390625 375 L 118.390625 453.925781 L 167.71875 453.925781 L 167.71875 434.195312 L 217.046875 365.136719 L 217.046875 296.074219 Z M 177.585938 296.074219 " style=" stroke:none;fill-rule:nonzero;fill:rgb(40.392157%,67.058824%,45.098039%);fill-opacity:1;" />
<path d="M 434.09375 236.878906 L 394.632812 236.878906 L 394.632812 187.550781 L 395.726562 187.550781 L 365.035156 148.085938 L 256.511719 148.085938 L 256.511719 217.148438 L 295.972656 276.34375 L 355.167969 276.34375 L 355.167969 394.730469 L 394.632812 394.730469 L 434.09375 345.402344 L 434.09375 305.941406 L 473.558594 236.878906 Z M 434.09375 236.878906 " style=" stroke:none;fill-rule:nonzero;fill:rgb(40.392157%,67.058824%,45.098039%);fill-opacity:1;" />
<path d="M 69.0625 246.746094 L 69.0625 197.417969 L 108.523438 197.417969 L 147.988281 118.488281 L 147.988281 79.027344 L 88.941406 79.027344 C 71.824219 95.304688 56.777344 113.632812 44.148438 133.59375 C 39.90625 140.300781 35.960938 147.1875 32.3125 154.261719 L 32.25 154.378906 C 21.09375 175.789062 12.707031 198.539062 7.300781 222.078125 L 7.171875 222.652344 C 5.378906 230.542969 3.90625 238.566406 2.773438 246.722656 Z M 69.0625 246.746094 " style=" stroke:none;fill-rule:nonzero;fill:rgb(40.392157%,67.058824%,45.098039%);fill-opacity:1;" />
<path d="M 305.839844 49.429688 L 266.378906 49.429688 L 266.378906 108.625 L 404.496094 108.625 L 463.691406 187.550781 L 503.765625 187.550781 L 538.96875 152.347656 C 529.367188 134.253906 517.855469 117.246094 504.625 101.609375 L 504.179688 101.097656 C 501.101562 97.476562 497.9375 93.933594 494.691406 90.480469 L 493.625 89.367188 C 490.515625 86.082031 487.328125 82.863281 484.054688 79.738281 L 482.863281 78.601562 C 479.527344 75.445312 476.121094 72.367188 472.648438 69.378906 C 472.335938 69.101562 472.027344 68.824219 471.664062 68.558594 C 467.914062 65.351562 464.078125 62.246094 460.160156 59.226562 L 460.109375 59.226562 C 435.574219 40.382812 408.128906 25.652344 378.867188 15.609375 L 378.34375 15.433594 C 373.597656 13.824219 368.800781 12.324219 363.9375 10.953125 L 363.355469 10.792969 C 358.386719 9.394531 353.355469 8.128906 348.273438 6.996094 Z M 305.839844 49.429688 " style=" stroke:none;fill-rule:nonzero;fill:rgb(40.392157%,67.058824%,45.098039%);fill-opacity:1;" />
<path d="M 207.183594 39.5625 L 78.925781 39.5625 C 68.023438 39.5625 59.195312 48.390625 59.195312 59.292969 C 59.195312 70.195312 68.023438 79.027344 78.925781 79.027344 L 88.910156 79.027344 L 89.335938 78.621094 L 147.988281 79.027344 L 207.183594 79.027344 C 218.082031 79.027344 226.914062 70.195312 226.914062 59.292969 C 226.914062 48.390625 218.082031 39.5625 207.183594 39.5625 Z M 207.183594 39.5625 " style=" stroke:none;fill-rule:nonzero;fill:rgb(81.568627%,84.313725%,87.45098%);fill-opacity:1;" />
<path d="M 108.523438 296.074219 L 19.730469 296.074219 C 8.828125 296.074219 0 304.902344 0 315.804688 C 0 326.707031 8.828125 335.535156 19.730469 335.535156 L 108.523438 335.535156 C 119.425781 335.535156 128.253906 326.707031 128.253906 315.804688 C 128.253906 304.902344 119.425781 296.074219 108.523438 296.074219 Z M 108.523438 296.074219 " style=" stroke:none;fill-rule:nonzero;fill:rgb(81.568627%,84.313725%,87.45098%);fill-opacity:1;" />
<path d="M 108.523438 296.074219 L 19.730469 296.074219 C 8.828125 296.074219 0 304.902344 0 315.804688 C 0 326.707031 8.828125 335.535156 19.730469 335.535156 L 108.523438 335.535156 C 119.425781 335.535156 128.253906 326.707031 128.253906 315.804688 C 128.253906 304.902344 119.425781 296.074219 108.523438 296.074219 Z M 108.523438 296.074219 " style=" stroke:none;fill-rule:nonzero;fill:rgb(81.568627%,84.313725%,87.45098%);fill-opacity:1;" />
<path d="M 207.183594 453.925781 L 69.0625 453.925781 C 58.207031 454.027344 49.429688 462.804688 49.328125 473.65625 C 49.328125 484.558594 58.160156 493.390625 69.0625 493.390625 L 207.183594 493.390625 C 218.082031 493.390625 226.914062 484.558594 226.914062 473.65625 C 226.914062 462.757812 218.082031 453.925781 207.183594 453.925781 Z M 207.183594 453.925781 " style=" stroke:none;fill-rule:nonzero;fill:rgb(81.568627%,84.313725%,87.45098%);fill-opacity:1;" />
<path d="M 552.484375 276.34375 L 503.15625 276.34375 C 492.253906 276.34375 483.425781 285.171875 483.425781 296.074219 C 483.425781 306.972656 492.253906 315.804688 503.15625 315.804688 L 552.484375 315.804688 C 562.085938 315.773438 570.273438 308.839844 571.882812 299.367188 C 571.960938 297.621094 571.96875 295.855469 572.019531 294.097656 C 571.03125 284.039062 562.585938 276.363281 552.484375 276.34375 Z M 552.484375 276.34375 " style=" stroke:none;fill-rule:nonzero;fill:rgb(81.568627%,84.313725%,87.45098%);fill-opacity:1;" />
<path d="M 548.410156 400.484375 C 544.03125 396.792969 538.484375 394.75 532.753906 394.730469 L 281.175781 394.730469 C 267.550781 394.730469 256.511719 405.773438 256.511719 419.394531 C 256.511719 433.019531 267.550781 444.058594 281.175781 444.058594 L 532.753906 444.058594 C 546.320312 444.121094 557.359375 433.15625 557.417969 419.59375 C 557.449219 412.195312 554.144531 405.167969 548.410156 400.484375 Z M 548.410156 400.484375 " style=" stroke:none;fill-rule:nonzero;fill:rgb(81.568627%,84.313725%,87.45098%);fill-opacity:1;" />
<path d="M 325.570312 542.71875 L 399.566406 542.71875 C 413.1875 542.71875 424.230469 531.679688 424.230469 518.054688 C 424.230469 504.429688 413.1875 493.390625 399.566406 493.390625 L 325.570312 493.390625 C 311.945312 493.390625 300.90625 504.429688 300.90625 518.054688 C 300.90625 531.679688 311.945312 542.71875 325.570312 542.71875 Z M 325.570312 542.71875 " style=" stroke:none;fill-rule:nonzero;fill:rgb(81.568627%,84.313725%,87.45098%);fill-opacity:1;" />
<path d="M 147.988281 98.757812 L 147.988281 79.027344 L 88.941406 79.027344 C 82.378906 85.269531 76.203125 91.921875 70.253906 98.757812 Z M 147.988281 98.757812 " style=" stroke:none;fill-rule:nonzero;fill:rgb(38.039216%,63.137255%,42.352941%);fill-opacity:1;" />
<path d="M 207.183594 79.027344 L 147.988281 79.027344 L 147.988281 98.757812 L 207.183594 98.757812 C 218.015625 98.824219 226.84375 90.09375 226.914062 79.261719 C 226.933594 75.710938 225.984375 72.21875 224.179688 69.160156 C 220.679688 75.246094 214.207031 79.007812 207.183594 79.027344 Z M 207.183594 79.027344 " style=" stroke:none;fill-rule:nonzero;fill:rgb(13.72549%,47.45098%,72.941176%);fill-opacity:1;" />
<path d="M 256.511719 207.28125 L 221.980469 207.28125 C 208.355469 207.28125 197.316406 218.320312 197.316406 231.945312 C 197.316406 245.570312 208.355469 256.609375 221.980469 256.609375 L 282.824219 256.609375 L 256.511719 217.148438 Z M 256.511719 207.28125 " style=" stroke:none;fill-rule:nonzero;fill:rgb(16.470588%,56.470588%,87.058824%);fill-opacity:1;" />
<path d="M 488.359375 207.28125 L 394.632812 207.28125 L 394.632812 236.878906 L 473.558594 236.878906 L 462.28125 256.609375 L 488.355469 256.609375 C 501.980469 256.609375 513.019531 245.570312 513.019531 231.945312 C 513.019531 218.320312 501.980469 207.28125 488.359375 207.28125 Z M 488.359375 207.28125 " style=" stroke:none;fill-rule:nonzero;fill:rgb(13.72549%,47.45098%,72.941176%);fill-opacity:1;" />
<path d="M 434.09375 236.878906 L 394.632812 236.878906 L 394.632812 207.28125 L 256.511719 207.28125 L 256.511719 217.148438 L 282.824219 256.609375 L 462.28125 256.609375 L 473.558594 236.878906 Z M 434.09375 236.878906 " style=" stroke:none;fill-rule:nonzero;fill:rgb(38.039216%,63.137255%,42.352941%);fill-opacity:1;" />
<path d="M 488.359375 187.550781 L 221.980469 187.550781 C 208.355469 187.550781 197.316406 198.589844 197.316406 212.214844 C 197.316406 225.839844 208.355469 236.878906 221.980469 236.878906 L 488.359375 236.878906 C 501.980469 236.878906 513.023438 225.839844 513.023438 212.214844 C 513.023438 198.589844 501.980469 187.550781 488.359375 187.550781 Z M 488.359375 187.550781 " style=" stroke:none;fill-rule:nonzero;fill:rgb(81.568627%,84.313725%,87.45098%);fill-opacity:1;" />
<path d="M 552.484375 315.804688 L 503.15625 315.804688 C 496.132812 315.785156 489.660156 312.027344 486.15625 305.941406 C 480.640625 315.261719 483.730469 327.289062 493.054688 332.804688 C 496.113281 334.609375 499.605469 335.558594 503.15625 335.539062 L 552.484375 335.539062 C 559.460938 335.539062 565.914062 331.828125 569.425781 325.800781 C 570.152344 320.53125 570.726562 315.203125 571.171875 309.847656 C 570.738281 308.515625 570.152344 307.230469 569.453125 306.019531 C 565.953125 312.078125 559.480469 315.804688 552.484375 315.804688 Z M 552.484375 315.804688 " style=" stroke:none;fill-rule:nonzero;fill:rgb(13.72549%,47.45098%,72.941176%);fill-opacity:1;" />
<path d="M 281.175781 444.0625 C 271.378906 444.050781 262.507812 438.242188 258.59375 429.261719 C 253.148438 441.742188 258.851562 456.285156 271.328125 461.730469 C 274.4375 463.082031 277.78125 463.785156 281.175781 463.792969 L 510.347656 463.792969 C 515.398438 457.417969 520.183594 450.839844 524.710938 444.0625 Z M 281.175781 444.0625 " style=" stroke:none;fill-rule:nonzero;fill:rgb(13.72549%,47.45098%,72.941176%);fill-opacity:1;" />
<path d="M 226.914062 493.390625 C 226.894531 489.917969 225.945312 486.511719 224.179688 483.523438 C 220.679688 489.613281 214.207031 493.371094 207.183594 493.390625 L 88.910156 493.390625 C 96.230469 500.367188 103.917969 506.957031 111.929688 513.121094 L 207.183594 513.121094 C 218.082031 513.121094 226.914062 504.28125 226.914062 493.390625 Z M 226.914062 493.390625 " style=" stroke:none;fill-rule:nonzero;fill:rgb(13.72549%,47.45098%,72.941176%);fill-opacity:1;" />
<path d="M 399.566406 542.71875 L 325.574219 542.71875 C 315.777344 542.707031 306.90625 536.898438 302.988281 527.921875 C 297.542969 540.402344 303.246094 554.941406 315.726562 560.386719 C 318.832031 561.738281 322.175781 562.441406 325.574219 562.449219 L 360.636719 562.449219 C 382.753906 556.492188 404.074219 547.878906 424.132812 536.800781 C 424.03125 533.742188 423.363281 530.730469 422.160156 527.921875 C 418.242188 536.898438 409.371094 542.707031 399.566406 542.71875 Z M 399.566406 542.71875 " style=" stroke:none;fill-rule:nonzero;fill:rgb(13.72549%,47.45098%,72.941176%);fill-opacity:1;" />
<path d="M 128.253906 335.539062 C 128.234375 332.0625 127.289062 328.660156 125.523438 325.671875 C 122.019531 331.757812 115.546875 335.519531 108.523438 335.539062 L 69.0625 335.539062 L 93.726562 355.269531 L 108.523438 355.269531 C 119.425781 355.269531 128.253906 346.429688 128.253906 335.539062 Z M 128.253906 335.539062 " style=" stroke:none;fill-rule:nonzero;fill:rgb(38.039216%,63.137255%,42.352941%);fill-opacity:1;" />
<path d="M 394.632812 394.730469 L 434.09375 345.402344 L 434.09375 305.941406 L 473.558594 236.878906 L 428.414062 236.878906 C 410.25 279.222656 385.527344 318.449219 355.167969 353.109375 L 355.167969 394.730469 C 355.167969 394.730469 394.632812 394.730469 394.632812 394.730469 Z M 394.632812 394.730469 " style=" stroke:none;fill-rule:nonzero;fill:rgb(38.039216%,63.137255%,42.352941%);fill-opacity:1;" />
<path d="M 488.359375 187.550781 L 503.769531 187.550781 L 538.898438 152.417969 C 538.347656 151.371094 537.796875 150.308594 537.222656 149.261719 C 535.910156 146.855469 534.558594 144.457031 533.167969 142.089844 C 531.886719 139.886719 530.5625 137.707031 529.222656 135.546875 C 527.878906 133.386719 526.460938 131.15625 525.039062 128.996094 C 523.617188 126.835938 522.078125 124.539062 520.5 122.335938 C 519.089844 120.363281 517.660156 118.320312 516.199219 116.347656 C 514.519531 114.089844 512.804688 111.859375 511.066406 109.648438 C 509.628906 107.816406 508.175781 105.992188 506.695312 104.195312 C 504.722656 101.847656 502.75 99.546875 500.777344 97.289062 C 499.386719 95.710938 497.996094 94.132812 496.574219 92.582031 C 494.433594 90.253906 492.234375 87.984375 490.015625 85.675781 C 488.601562 84.246094 487.203125 82.804688 485.761719 81.40625 C 483.441406 79.144531 481.066406 76.957031 478.679688 74.773438 C 477.226562 73.453125 475.785156 72.121094 474.316406 70.828125 C 471.859375 68.6875 469.382812 66.617188 466.828125 64.5625 C 465.773438 63.695312 464.726562 62.835938 463.652344 61.988281 C 463.652344 62.726562 463.710938 63.460938 463.710938 64.199219 C 463.699219 99.933594 459.339844 135.527344 450.726562 170.207031 L 463.691406 187.550781 Z M 488.359375 187.550781 " style=" stroke:none;fill-rule:nonzero;fill:rgb(38.039216%,63.137255%,42.352941%);fill-opacity:1;" />
<path d="M 69.0625 355.269531 L 93.726562 355.269531 L 69.0625 335.539062 L 19.730469 335.539062 C 12.796875 335.515625 6.394531 331.847656 2.871094 325.867188 L 2.8125 325.988281 C 3.976562 334.332031 5.515625 342.5625 7.378906 350.652344 C 10.820312 353.589844 15.203125 355.226562 19.730469 355.269531 Z M 69.0625 355.269531 " style=" stroke:none;fill-rule:nonzero;fill:rgb(13.72549%,47.45098%,72.941176%);fill-opacity:1;" />
</g>
</svg>