<svg xmlns="http://www.w3.org/2000/svg" height="573pt" version="1.1" viewBox="0 0 573.20044 573" width="573pt">
<g id="surface1">
<path d="M 572.214844 286.207031 C 572.214844 444.222656 444.121094 572.316406 286.109375 572.316406 C 128.09375 572.316406 0 444.222656 0 286.207031 C 0 128.195312 128.09375 0.101562 286.109375 0.101562 C 444.121094 0.101562 572.214844 128.195312 572.214844 286.207031 Z M 572.214844 286.207031 " style=" stroke:none;fill-rule:nonzero;fill:rgb(94.117647%,27.843137%,16.078431%);fill-opacity:1;" />
<path d="M 463.632812 61.929688 C 463.632812 62.699219 463.691406 63.457031 463.691406 64.226562 C 463.671875 280.089844 306.746094 463.921875 93.566406 497.832031 C 210.050781 604.597656 391.03125 596.726562 497.800781 480.25 C 604.566406 363.773438 596.703125 182.777344 480.21875 76.007812 C 474.871094 71.101562 469.335938 66.40625 463.632812 61.929688 Z M 463.632812 61.929688 " style=" stroke:none;fill-rule:nonzero;fill:rgb(86.666667%,21.960784%,10.196078%);fill-opacity:1;" />
<path d="M 381.066406 434.195312 C 348.371094 434.195312 321.871094 407.695312 321.871094 375 C 321.871094 342.304688 348.371094 315.804688 381.066406 315.804688 C 413.761719 315.804688 440.261719 342.304688 440.261719 375 C 440.230469 407.675781 413.742188 434.15625 381.066406 434.195312 Z M 381.066406 335.539062 C 359.273438 335.539062 341.605469 353.207031 341.605469 375 C 341.605469 396.792969 359.273438 414.464844 381.066406 414.464844 C 402.859375 414.464844 420.53125 396.792969 420.53125 375 C 420.53125 353.207031 402.859375 335.539062 381.066406 335.539062 Z M 381.066406 335.539062 " style=" stroke:none;fill-rule:nonzero;fill:rgb(76.862745%,19.215686%,9.019608%);fill-opacity:1;" />
<path d="M 187.449219 197.414062 C 165.65625 197.414062 147.988281 179.746094 147.988281 157.953125 C 147.988281 136.160156 165.65625 118.488281 187.449219 118.488281 C 209.242188 118.488281 226.914062 136.160156 226.914062 157.953125 C 226.914062 179.746094 209.242188 197.414062 187.449219 197.414062 Z M 187.449219 138.222656 C 176.546875 138.222656 167.71875 147.050781 167.71875 157.953125 C 167.71875 168.851562 176.550781 177.683594 187.449219 177.683594 C 198.351562 177.683594 207.183594 168.855469 207.183594 157.953125 C 207.183594 147.050781 198.351562 138.222656 187.449219 138.222656 Z M 187.449219 138.222656 " style=" stroke:none;fill-rule:nonzero;fill:rgb(76.862745%,19.215686%,9.019608%);fill-opacity:1;" />
<path d="M 556.253906 236.050781 C 539.292969 229.726562 523.449219 220.726562 509.320312 209.414062 C 475.609375 182.539062 433.800781 167.875 390.6875 167.816406 L 388.710938 167.816406 C 345.589844 167.875 303.757812 182.546875 270.046875 209.441406 C 239.855469 233.535156 202.398438 246.683594 163.773438 246.742188 L 2.773438 246.742188 C 1.875 253.253906 1.195312 259.835938 0.75 266.476562 L 163.773438 266.476562 C 206.894531 266.417969 248.726562 251.746094 282.4375 224.851562 C 312.628906 200.757812 350.085938 187.609375 388.714844 187.546875 L 390.6875 187.546875 C 429.332031 187.597656 466.8125 200.75 497.019531 224.851562 C 512.796875 237.46875 530.476562 247.492188 549.410156 254.539062 C 556.394531 257.074219 563.636719 258.859375 570.996094 259.855469 C 570.332031 252.960938 569.464844 246.132812 568.371094 239.382812 C 564.253906 238.585938 560.199219 237.46875 556.253906 236.050781 Z M 556.253906 236.050781 " style=" stroke:none;fill-rule:nonzero;fill:rgb(76.862745%,19.215686%,9.019608%);fill-opacity:1;" />
<path d="M 58.03125 126.757812 C 77.496094 125.109375 96.527344 120.066406 114.265625 111.871094 L 131.433594 103.296875 C 169.917969 84.453125 214.957031 84.453125 253.445312 103.296875 L 270.589844 111.871094 C 292.265625 122.671875 316.152344 128.316406 340.371094 128.355469 L 524.714844 128.355469 C 520.207031 121.558594 515.410156 114.988281 510.347656 108.625 L 340.371094 108.625 C 319.199219 108.59375 298.3125 103.671875 279.359375 94.21875 L 262.214844 85.644531 C 218.164062 64.070312 166.613281 64.070312 122.5625 85.644531 L 105.398438 94.21875 C 92.253906 100.347656 78.238281 104.363281 63.84375 106.117188 C 58.4375 112.777344 53.296875 119.671875 48.5 126.835938 L 57.035156 126.835938 C 57.371094 126.824219 57.703125 126.796875 58.03125 126.757812 Z M 58.03125 126.757812 " style=" stroke:none;fill-rule:nonzero;fill:rgb(76.862745%,19.215686%,9.019608%);fill-opacity:1;" />
<path d="M 449.96875 304.480469 C 411.691406 266.960938 350.445312 266.960938 312.164062 304.480469 C 293.242188 323.863281 267.441406 335.023438 240.359375 335.535156 L 4.320312 335.535156 C 5.484375 342.195312 6.835938 348.777344 8.445312 355.265625 L 240.359375 355.265625 C 272.613281 354.765625 303.363281 341.582031 325.976562 318.574219 C 356.570312 288.566406 405.5625 288.566406 436.15625 318.574219 C 458.769531 341.582031 489.519531 354.761719 521.773438 355.265625 L 563.769531 355.265625 C 565.378906 348.777344 566.730469 342.195312 567.894531 335.535156 L 521.769531 335.535156 C 494.691406 335.015625 468.890625 323.855469 449.96875 304.480469 Z M 449.96875 304.480469 " style=" stroke:none;fill-rule:nonzero;fill:rgb(76.862745%,19.215686%,9.019608%);fill-opacity:1;" />
<path d="M 436.15625 431.421875 C 405.5625 461.433594 356.570312 461.433594 325.976562 431.421875 C 303.363281 408.414062 272.613281 395.234375 240.359375 394.730469 L 21.359375 394.730469 C 24.121094 401.441406 27.132812 408.019531 30.375 414.460938 L 240.359375 414.460938 C 267.441406 414.976562 293.242188 426.132812 312.164062 445.519531 C 350.441406 483.039062 411.6875 483.039062 449.96875 445.519531 C 468.890625 426.144531 494.691406 414.984375 521.773438 414.460938 L 541.839844 414.460938 C 545.085938 408.019531 548.09375 401.441406 550.855469 394.730469 L 521.773438 394.730469 C 489.519531 395.234375 458.769531 408.414062 436.15625 431.421875 Z M 436.15625 431.421875 " style=" stroke:none;fill-rule:nonzero;fill:rgb(76.862745%,19.215686%,9.019608%);fill-opacity:1;" />
<path d="M 335.4375 532.851562 C 335.4375 505.230469 305.101562 483.523438 266.378906 483.523438 C 227.652344 483.523438 197.316406 505.230469 197.316406 532.851562 C 197.542969 544.019531 202.328125 554.617188 210.566406 562.164062 C 235.179688 568.902344 260.585938 572.316406 286.109375 572.316406 C 294.238281 572.316406 302.257812 571.894531 310.210938 571.230469 C 324.949219 563.949219 334.597656 549.269531 335.4375 532.851562 Z M 266.378906 562.449219 C 239.640625 562.449219 217.046875 548.894531 217.046875 532.851562 C 217.046875 516.8125 239.640625 503.253906 266.378906 503.253906 C 293.113281 503.253906 315.707031 516.8125 315.707031 532.851562 C 315.707031 548.894531 293.113281 562.449219 266.378906 562.449219 Z M 266.378906 562.449219 " style=" stroke:none;fill-rule:nonzero;fill:rgb(76.862745%,19.215686%,9.019608%);fill-opacity:1;" />
</g>
</svg>