<svg xmlns="http://www.w3.org/2000/svg" height="573pt" version="1.1" viewBox="0 0 573.20047 573" width="573pt">
<g id="surface1">
<path d="M 472.402344 69.160156 L 99.8125 69.160156 C 73.855469 91.429688 52.082031 118.15625 35.515625 148.085938 L 536.699219 148.085938 C 520.136719 118.15625 498.359375 91.429688 472.402344 69.160156 Z M 472.402344 69.160156 " style=" stroke:none;fill-rule:nonzero;fill:rgb(94.117647%,61.960784%,14.901961%);fill-opacity:1;" />
<path d="M 19.996094 213.8125 C 45.953125 209.492188 72.433594 209.492188 98.390625 213.8125 L 138.386719 220.484375 C 164.34375 224.804688 190.824219 224.804688 216.78125 220.484375 L 256.777344 213.8125 C 282.734375 209.492188 309.214844 209.492188 335.171875 213.8125 L 375.167969 220.484375 C 401.125 224.804688 427.605469 224.804688 453.5625 220.484375 L 493.558594 213.8125 C 516.296875 210.023438 539.472656 209.550781 562.351562 212.414062 L 562.566406 212.414062 C 556.609375 190 547.917969 168.390625 536.699219 148.085938 L 35.515625 148.085938 C 23.726562 169.398438 14.738281 192.128906 8.75 215.738281 L 9.867188 215.5 Z M 19.996094 213.8125 " style=" stroke:none;fill-rule:nonzero;fill:rgb(98.039216%,73.72549%,37.254902%);fill-opacity:1;" />
<path d="M 286.109375 0.101562 C 217.738281 0.0195312 151.609375 24.527344 99.8125 69.160156 L 472.402344 69.160156 C 420.609375 24.527344 354.476562 0.0195312 286.109375 0.101562 Z M 286.109375 0.101562 " style=" stroke:none;fill-rule:nonzero;fill:rgb(89.019608%,53.333333%,0%);fill-opacity:1;" />
<path d="M 315.183594 345.582031 C 353.945312 332.65625 395.855469 332.65625 434.617188 345.582031 C 453.875 351.996094 474.042969 355.269531 494.335938 355.269531 L 563.773438 355.269531 C 569.386719 332.675781 572.21875 309.484375 572.21875 286.210938 L 0 286.210938 C 0 309.484375 2.832031 332.675781 8.445312 355.269531 L 255.464844 355.269531 C 275.757812 355.257812 295.925781 351.996094 315.183594 345.582031 Z M 315.183594 345.582031 " style=" stroke:none;fill-rule:nonzero;fill:rgb(98.039216%,73.72549%,37.254902%);fill-opacity:1;" />
<path d="M 494.335938 355.269531 C 474.042969 355.269531 453.875 351.992188 434.617188 345.582031 C 395.855469 332.65625 353.945312 332.65625 315.183594 345.582031 C 295.925781 351.992188 275.757812 355.269531 255.464844 355.269531 L 8.445312 355.269531 C 20.421875 403.433594 44.761719 447.632812 79.035156 483.523438 L 255.464844 483.523438 C 275.757812 483.523438 295.925781 486.800781 315.183594 493.214844 C 353.945312 506.136719 395.855469 506.136719 434.617188 493.214844 C 453.492188 486.9375 473.242188 483.691406 493.132812 483.574219 C 527.4375 447.671875 551.785156 403.453125 563.773438 355.269531 C 563.769531 355.269531 494.335938 355.269531 494.335938 355.269531 Z M 494.335938 355.269531 " style=" stroke:none;fill-rule:nonzero;fill:rgb(94.117647%,61.960784%,14.901961%);fill-opacity:1;" />
<path d="M 434.617188 493.214844 C 395.855469 506.136719 353.945312 506.136719 315.183594 493.214844 C 295.925781 486.800781 275.757812 483.523438 255.464844 483.523438 L 79.035156 483.523438 C 187.867188 597.890625 368.804688 602.367188 483.167969 493.539062 C 486.570312 490.300781 489.898438 486.976562 493.132812 483.574219 C 473.242188 483.683594 453.492188 486.9375 434.617188 493.214844 Z M 434.617188 493.214844 " style=" stroke:none;fill-rule:nonzero;fill:rgb(98.039216%,73.72549%,37.254902%);fill-opacity:1;" />
<path d="M 562.566406 212.453125 L 562.351562 212.453125 C 539.472656 209.589844 516.296875 210.066406 493.558594 213.851562 L 453.5625 220.523438 C 427.605469 224.84375 401.125 224.84375 375.167969 220.523438 L 335.171875 213.851562 C 309.214844 209.53125 282.734375 209.53125 256.777344 213.851562 L 216.78125 220.523438 C 190.824219 224.84375 164.34375 224.84375 138.386719 220.523438 L 98.390625 213.851562 C 72.433594 209.53125 45.953125 209.53125 19.996094 213.851562 L 9.867188 215.5 L 8.769531 215.738281 C 2.941406 238.773438 -0.0117188 262.441406 0 286.210938 L 572.21875 286.210938 C 572.21875 261.308594 568.980469 236.515625 562.566406 212.453125 Z M 562.566406 212.453125 " style=" stroke:none;fill-rule:nonzero;fill:rgb(94.117647%,61.960784%,14.901961%);fill-opacity:1;" />
<path d="M 463.632812 61.929688 C 463.632812 62.699219 463.691406 63.460938 463.691406 64.230469 C 463.671875 280.09375 306.746094 463.921875 93.566406 497.832031 C 210.050781 604.597656 391.03125 596.726562 497.800781 480.25 C 604.566406 363.777344 596.703125 182.777344 480.21875 76.007812 C 474.871094 71.105469 469.335938 66.410156 463.632812 61.929688 Z M 463.632812 61.929688 " style=" stroke:none;fill-rule:nonzero;fill:rgb(90.196078%,58.039216%,11.764706%);fill-opacity:1;" />
<path d="M 431.492188 483.859375 C 394.742188 496.023438 355.0625 496.023438 318.3125 483.859375 C 298.046875 477.101562 276.824219 473.648438 255.464844 473.660156 L 70.046875 473.660156 C 76.015625 480.535156 82.300781 487.117188 88.890625 493.390625 L 255.464844 493.390625 C 274.703125 493.378906 293.8125 496.488281 312.066406 502.574219 C 352.871094 516.082031 396.929688 516.082031 437.734375 502.574219 C 452.328125 497.742188 467.480469 494.8125 482.820312 493.855469 C 489.589844 487.441406 496.042969 480.710938 502.167969 473.660156 L 494.355469 473.660156 C 472.988281 473.648438 451.753906 477.09375 431.492188 483.859375 Z M 431.492188 483.859375 " style=" stroke:none;fill-rule:nonzero;fill:rgb(85.882353%,51.372549%,0%);fill-opacity:1;" />
<path d="M 318.3125 354.933594 C 355.0625 342.769531 394.742188 342.769531 431.492188 354.933594 C 451.753906 361.691406 472.976562 365.144531 494.335938 365.136719 L 561.097656 365.136719 C 562.960938 358.644531 564.648438 352.074219 566.03125 345.40625 L 494.335938 345.40625 C 475.097656 345.414062 455.988281 342.308594 437.734375 336.21875 C 396.929688 322.703125 352.871094 322.714844 312.066406 336.21875 C 293.816406 342.308594 274.703125 345.414062 255.464844 345.40625 L 6.164062 345.40625 C 7.566406 352.074219 9.253906 358.644531 11.097656 365.136719 L 255.464844 365.136719 C 276.824219 365.136719 298.046875 361.691406 318.3125 354.933594 Z M 318.3125 354.933594 " style=" stroke:none;fill-rule:nonzero;fill:rgb(85.882353%,51.372549%,0%);fill-opacity:1;" />
<path d="M 572.21875 286.210938 C 572.21875 282.90625 572.078125 279.628906 571.96875 276.34375 L 0.246094 276.34375 C 0.136719 279.628906 0 282.902344 0 286.210938 C 0 289.515625 0.136719 292.789062 0.246094 296.074219 L 571.96875 296.074219 C 572.078125 292.789062 572.21875 289.515625 572.21875 286.210938 Z M 572.21875 286.210938 " style=" stroke:none;fill-rule:nonzero;fill:rgb(85.882353%,51.372549%,0%);fill-opacity:1;" />
<path d="M 531.007812 138.222656 L 41.210938 138.222656 C 37.332031 144.625 33.75 151.234375 30.359375 157.953125 L 541.839844 157.953125 C 538.464844 151.234375 534.882812 144.625 531.007812 138.222656 Z M 531.007812 138.222656 " style=" stroke:none;fill-rule:nonzero;fill:rgb(85.882353%,51.372549%,0%);fill-opacity:1;" />
<path d="M 21.617188 223.542969 C 46.496094 219.398438 71.894531 219.398438 96.773438 223.542969 L 136.769531 230.210938 C 163.792969 234.738281 191.378906 234.738281 218.398438 230.210938 L 258.394531 223.542969 C 283.277344 219.398438 308.671875 219.398438 333.554688 223.542969 L 373.550781 230.210938 C 400.570312 234.71875 428.15625 234.71875 455.179688 230.210938 L 495.175781 223.542969 C 516.851562 219.929688 538.929688 219.457031 560.734375 222.148438 L 565.09375 222.878906 C 563.523438 215.914062 561.75 209.066406 559.675781 202.28125 C 537.125 199.792969 514.335938 200.394531 491.9375 204.085938 L 451.941406 210.753906 C 427.0625 214.898438 401.667969 214.898438 376.785156 210.753906 L 336.789062 204.085938 C 309.765625 199.558594 282.183594 199.558594 255.160156 204.085938 L 215.164062 210.753906 C 190.28125 214.898438 164.886719 214.898438 140.007812 210.753906 L 100.011719 204.085938 C 72.988281 199.566406 45.394531 199.566406 18.371094 204.085938 L 11.640625 205.4375 C 9.621094 212.304688 7.851562 219.269531 6.324219 226.324219 L 11.484375 225.238281 Z M 21.617188 223.542969 " style=" stroke:none;fill-rule:nonzero;fill:rgb(85.882353%,51.372549%,0%);fill-opacity:1;" />
<path d="M 460.289062 59.296875 L 111.929688 59.296875 C 103.917969 65.460938 96.230469 72.050781 88.910156 79.027344 L 483.304688 79.027344 C 475.984375 72.050781 468.300781 65.460938 460.289062 59.296875 Z M 460.289062 59.296875 " style=" stroke:none;fill-rule:nonzero;fill:rgb(85.882353%,51.372549%,0%);fill-opacity:1;" />
<path d="M 299.011719 419.652344 L 310.980469 410.417969 C 328.390625 399.367188 348.765625 393.902344 369.375 394.734375 C 406.410156 394.734375 434.09375 409.777344 434.09375 423.234375 C 434.09375 426.460938 429.921875 431.667969 420.609375 436.058594 C 393.734375 448.667969 360.753906 445.601562 349.859375 437.953125 C 348.855469 437.304688 347.996094 436.457031 347.335938 435.457031 C 357.308594 429.339844 369.632812 428.484375 380.355469 433.167969 L 389.175781 415.507812 C 373.410156 408.308594 355.1875 408.8125 339.847656 416.890625 C 333.246094 419.691406 328.558594 425.710938 327.464844 432.792969 C 326.910156 441.40625 331.175781 449.617188 338.535156 454.113281 C 351.015625 461.472656 365.367188 465.023438 379.832031 464.335938 C 396.773438 464.40625 413.523438 460.863281 428.984375 453.925781 C 444.769531 446.519531 453.828125 435.328125 453.828125 423.253906 C 453.828125 395.71875 417.519531 375 369.375 375 C 344.40625 374.082031 319.769531 381.007812 298.933594 394.789062 L 286.957031 404.035156 C 278.414062 411.089844 267.589844 414.796875 256.511719 414.460938 L 30.515625 414.460938 C 33.910156 421.203125 37.550781 427.78125 41.4375 434.195312 L 256.511719 434.195312 C 271.949219 434.511719 287.003906 429.363281 299.011719 419.652344 Z M 299.011719 419.652344 " style=" stroke:none;fill-rule:nonzero;fill:rgb(85.882353%,51.372549%,0%);fill-opacity:1;" />
</g>
</svg>