<svg xmlns="http://www.w3.org/2000/svg" height="572pt" version="1.1" viewBox="0 0 572.42715 572" width="572pt">
<g id="surface1">
<path d="M 404.070312 404.238281 C 352.265625 457.144531 292.402344 501.503906 226.714844 535.675781 C 364.484375 568.425781 502.71875 483.289062 535.46875 345.519531 C 544.738281 306.515625 544.738281 265.882812 535.460938 226.878906 C 501.308594 292.570312 456.960938 352.429688 404.070312 404.238281 Z M 404.070312 404.238281 " style=" stroke:none;fill-rule:nonzero;fill:rgb(89.019608%,53.333333%,0%);fill-opacity:1;" />
<path d="M 145.007812 369.839844 C 202.800781 337.183594 249.542969 288.035156 279.238281 228.664062 C 295.265625 196.613281 316.359375 167.34375 341.695312 142 L 414.238281 69.476562 L 417.640625 66.289062 C 414.316406 64.316406 411.042969 62.246094 407.628906 60.371094 C 403.144531 57.957031 398.566406 55.695312 393.933594 53.558594 C 393.054688 53.140625 392.167969 52.757812 391.289062 52.355469 C 386.96875 50.382812 382.613281 48.578125 378.171875 46.871094 L 377.109375 46.527344 C 350.382812 36.386719 322.136719 30.804688 293.570312 30.039062 L 292.730469 31.023438 C 251.390625 73.894531 214.695312 121.003906 183.261719 171.585938 C 143.113281 236.152344 94.4375 295.007812 38.558594 346.554688 L 37.199219 347.757812 C 39.644531 357.765625 42.691406 367.621094 46.320312 377.265625 C 46.457031 377.621094 46.605469 377.976562 46.734375 378.328125 C 48.441406 382.757812 50.285156 387.125 52.21875 391.4375 C 52.613281 392.3125 53.007812 393.203125 53.421875 394.078125 C 55.5625 398.714844 57.820312 403.300781 60.238281 407.777344 C 62.375 411.722656 64.722656 415.558594 67.0625 419.394531 C 81.777344 408.140625 97.070312 397.679688 112.878906 388.023438 Z M 145.007812 369.839844 " style=" stroke:none;fill-rule:nonzero;fill:rgb(94.117647%,61.960784%,14.901961%);fill-opacity:1;" />
<path d="M 183.253906 171.535156 C 214.683594 120.953125 251.378906 73.84375 292.71875 30.972656 L 293.558594 29.988281 C 291.054688 29.929688 288.558594 29.761719 286.035156 29.761719 C 144.457031 29.710938 29.652344 144.433594 29.59375 286.011719 C 29.585938 306.050781 31.929688 326.011719 36.566406 345.5 C 36.753906 346.257812 37 346.988281 37.1875 347.757812 L 38.550781 346.554688 C 94.4375 294.984375 143.105469 236.109375 183.253906 171.535156 Z M 183.253906 171.535156 " style=" stroke:none;fill-rule:nonzero;fill:rgb(96.078431%,68.235294%,27.058824%);fill-opacity:1;" />
<path d="M 456.347656 183.398438 L 407.9375 216.320312 C 348.417969 256.78125 299.394531 310.84375 264.9375 374.03125 C 244.21875 412.039062 218.164062 446.871094 187.5625 477.492188 L 155.472656 506.742188 C 158.429688 508.507812 161.390625 510.359375 164.425781 512.007812 C 224.484375 491.078125 299.78125 440.933594 370.253906 370.460938 C 440.726562 299.988281 490.875 224.652344 511.800781 164.59375 C 508.726562 158.890625 505.441406 153.328125 501.941406 147.894531 C 487.511719 160.6875 472.285156 172.550781 456.347656 183.398438 Z M 456.347656 183.398438 " style=" stroke:none;fill-rule:nonzero;fill:rgb(94.117647%,61.960784%,14.901961%);fill-opacity:1;" />
<path d="M 264.949219 374.027344 C 299.40625 310.84375 348.429688 256.78125 407.945312 216.316406 L 456.359375 183.398438 C 472.296875 172.539062 487.511719 160.6875 501.941406 147.894531 C 480.492188 114.550781 451.636719 86.613281 417.621094 66.25 L 414.238281 69.472656 L 341.714844 141.996094 C 316.378906 167.34375 295.285156 196.613281 279.257812 228.664062 C 249.554688 288.03125 202.808594 337.183594 145.007812 369.835938 L 112.832031 388.023438 C 97.050781 397.675781 81.785156 408.148438 67.101562 419.390625 C 89.003906 455.28125 119.359375 485.25 155.511719 506.699219 L 187.5625 477.488281 C 218.164062 446.878906 244.21875 412.035156 264.949219 374.027344 Z M 264.949219 374.027344 " style=" stroke:none;fill-rule:nonzero;fill:rgb(96.078431%,68.235294%,27.058824%);fill-opacity:1;" />
<path d="M 546.4375 25.816406 C 507.433594 -13.230469 431.132812 -6.058594 345.324219 36.742188 C 356.121094 39.296875 366.734375 42.550781 377.109375 46.484375 L 378.152344 46.902344 C 382.582031 48.605469 386.949219 50.429688 391.269531 52.382812 C 392.148438 52.789062 393.035156 53.171875 393.914062 53.585938 C 398.546875 55.734375 403.125 57.984375 407.609375 60.402344 C 451.625 45.066406 487.492188 45.390625 507.136719 65.066406 C 526.78125 84.742188 527.136719 120.578125 511.800781 164.59375 C 490.875 224.652344 440.726562 299.976562 370.253906 370.417969 C 299.78125 440.863281 224.484375 491.039062 164.425781 512.007812 C 120.414062 527.351562 84.542969 527.015625 64.898438 507.34375 C 45.253906 487.667969 44.890625 451.792969 60.195312 407.777344 C 57.78125 403.300781 55.53125 398.714844 53.378906 394.078125 C 52.964844 393.203125 52.570312 392.3125 52.175781 391.4375 C 50.203125 387.125 48.378906 382.757812 46.695312 378.328125 C 46.566406 377.976562 46.417969 377.621094 46.28125 377.265625 C 42.34375 366.898438 39.089844 356.289062 36.535156 345.5 C -6.265625 431.296875 -13.433594 507.597656 25.5625 546.601562 C 64.554688 585.605469 140.90625 578.425781 226.714844 535.675781 C 292.40625 501.503906 352.265625 457.144531 404.070312 404.238281 C 456.960938 352.433594 501.308594 292.570312 535.460938 226.878906 C 578.273438 141.070312 585.429688 64.769531 546.4375 25.816406 Z M 546.4375 25.816406 " style=" stroke:none;fill-rule:nonzero;fill:rgb(98.039216%,73.72549%,37.254902%);fill-opacity:1;" />
<path d="M 191.65625 176.703125 C 222.839844 126.582031 259.207031 79.90625 300.183594 37.421875 L 306.101562 30.617188 C 299.464844 30.105469 292.789062 29.757812 286.035156 29.757812 C 284.121094 29.757812 282.234375 29.859375 280.34375 29.90625 C 240.699219 71.722656 205.363281 117.421875 174.878906 166.316406 C 135.863281 229.058594 88.707031 286.347656 34.625 336.679688 C 36.09375 344.046875 37.917969 351.277344 40.007812 358.375 L 45.253906 353.761719 C 101.785156 301.59375 151.035156 242.039062 191.65625 176.703125 Z M 191.65625 176.703125 " style=" stroke:none;fill-rule:nonzero;fill:rgb(89.019608%,53.333333%,0%);fill-opacity:1;" />
<path d="M 149.9375 378.40625 C 209.464844 344.835938 257.570312 294.214844 288.074219 233.0625 C 303.617188 201.949219 324.082031 173.546875 348.6875 148.960938 L 420.992188 76.644531 L 426.359375 71.605469 C 420.65625 67.867188 414.820312 64.316406 408.8125 61.03125 L 407.265625 62.492188 L 334.730469 135.015625 C 308.636719 161.101562 286.921875 191.230469 270.433594 224.238281 C 241.695312 281.878906 196.359375 329.589844 140.253906 361.238281 L 108.066406 379.425781 C 92.179688 389.089844 76.8125 399.582031 62.019531 410.855469 C 65.246094 416.632812 68.6875 422.273438 72.324219 427.777344 C 86.921875 416.613281 102.078125 406.210938 117.75 396.625 Z M 149.9375 378.40625 " style=" stroke:none;fill-rule:nonzero;fill:rgb(89.019608%,53.333333%,0%);fill-opacity:1;" />
<path d="M 273.617188 378.734375 C 307.394531 316.980469 355.332031 264.109375 413.5 224.464844 L 461.910156 191.496094 C 477.691406 180.707031 492.789062 168.949219 507.128906 156.308594 C 503.765625 150.597656 500.195312 145.035156 496.417969 139.621094 C 482.007812 152.453125 466.773438 164.335938 450.816406 175.183594 L 402.40625 208.144531 C 341.65625 249.554688 291.585938 304.78125 256.300781 369.285156 C 236.113281 406.328125 210.738281 440.292969 180.9375 470.144531 L 146.683594 501.355469 C 152.433594 505.09375 158.324219 508.644531 164.375 511.917969 L 194.554688 484.40625 C 225.816406 453.140625 252.441406 417.550781 273.617188 378.734375 Z M 273.617188 378.734375 " style=" stroke:none;fill-rule:nonzero;fill:rgb(89.019608%,53.333333%,0%);fill-opacity:1;" />
<path d="M 345.324219 36.742188 C 356.121094 39.296875 366.734375 42.550781 377.109375 46.484375 L 378.152344 46.902344 C 382.582031 48.605469 386.949219 50.429688 391.269531 52.382812 C 392.148438 52.789062 393.035156 53.171875 393.914062 53.585938 C 398.546875 55.734375 403.125 57.984375 407.609375 60.402344 C 445.648438 47.148438 477.53125 45.65625 498.203125 58.183594 C 517.34375 50.71875 536.851562 44.238281 556.664062 38.785156 C 553.726562 34.109375 550.292969 29.761719 546.4375 25.816406 C 507.433594 -13.230469 431.132812 -6.058594 345.324219 36.742188 Z M 345.324219 36.742188 " style=" stroke:none;fill-rule:nonzero;fill:rgb(96.078431%,68.235294%,27.058824%);fill-opacity:1;" />
</g>
</svg>