<svg xmlns="http://www.w3.org/2000/svg" height="589pt" version="1.1" viewBox="0 0 589 589.88015" width="589pt">
<g id="surface1">
<path d="M 579.433594 259.867188 C 570.628906 188.308594 535.101562 122.734375 479.980469 76.273438 L 478.992188 77.800781 C 366.519531 231.703125 228.136719 364.886719 70.027344 471.378906 C 116.6875 531.03125 185.117188 569.734375 260.285156 578.976562 C 348.277344 455.671875 456.121094 347.839844 579.433594 259.867188 Z M 579.433594 259.867188 " style=" stroke:none;fill-rule:nonzero;fill:rgb(14.901961%,51.372549%,78.823529%);fill-opacity:1;" />
<path d="M 478.992188 77.800781 L 479.980469 76.269531 C 451.648438 52.304688 418.917969 34.089844 383.617188 22.640625 C 283.335938 159.167969 160.210938 277.359375 19.671875 371.964844 C 29.753906 408.101562 46.859375 441.902344 70.015625 471.417969 C 228.136719 364.917969 366.519531 231.722656 478.992188 77.800781 Z M 478.992188 77.800781 " style=" stroke:none;fill-rule:nonzero;fill:rgb(16.470588%,56.470588%,87.058824%);fill-opacity:1;" />
<path d="M 383.65625 22.640625 C 355.148438 13.390625 325.355469 8.691406 295.386719 8.703125 C 287.410156 8.703125 279.535156 9.117188 271.695312 9.757812 C 196.003906 104.097656 108.476562 188.300781 11.28125 260.292969 C 9.871094 271.800781 9.148438 283.378906 9.121094 294.96875 C 9.121094 321 12.664062 346.902344 19.671875 371.964844 C 160.222656 277.359375 283.363281 159.179688 383.65625 22.640625 Z M 383.65625 22.640625 " style=" stroke:none;fill-rule:nonzero;fill:rgb(41.176471%,80%,84.313725%);fill-opacity:1;" />
<path d="M 271.695312 9.757812 C 136.488281 21.003906 27.757812 125.617188 11.285156 260.292969 C 108.476562 188.289062 196.003906 104.089844 271.695312 9.757812 Z M 271.695312 9.757812 " style=" stroke:none;fill-rule:nonzero;fill:rgb(16.470588%,56.470588%,87.058824%);fill-opacity:1;" />
<path d="M 573.824219 361.382812 L 571.78125 362.558594 C 488.359375 420.046875 415.71875 491.78125 357.191406 574.472656 C 464.226562 550.722656 548.320312 468.003906 573.824219 361.382812 Z M 573.824219 361.382812 " style=" stroke:none;fill-rule:nonzero;fill:rgb(13.72549%,47.45098%,72.941176%);fill-opacity:1;" />
<path d="M 571.78125 362.558594 L 573.824219 361.382812 C 581.800781 328.15625 583.707031 293.765625 579.433594 259.867188 C 456.121094 347.847656 348.269531 455.703125 260.285156 579.015625 C 292.605469 583.089844 325.386719 581.550781 357.191406 574.472656 C 415.726562 491.773438 488.359375 420.039062 571.78125 362.558594 Z M 571.78125 362.558594 " style=" stroke:none;fill-rule:nonzero;fill:rgb(13.72549%,47.45098%,72.941176%);fill-opacity:1;" />
<path d="M 473.011719 70.566406 C 473.011719 71.335938 473.070312 72.097656 473.070312 72.867188 C 473.050781 288.847656 316.039062 472.78125 102.742188 506.707031 C 219.289062 613.535156 400.367188 605.65625 507.195312 489.117188 C 614.023438 372.578125 606.144531 191.488281 489.605469 84.664062 C 484.253906 79.746094 478.726562 75.046875 473.011719 70.566406 Z M 473.011719 70.566406 " style=" stroke:none;fill-rule:nonzero;fill:rgb(13.72549%,47.45098%,72.941176%);fill-opacity:1;" />
<path d="M 343.214844 577.179688 C 352.925781 575.550781 362.542969 573.40625 372.027344 570.773438 C 426.992188 495.523438 493.847656 429.730469 569.957031 375.960938 C 572.730469 366.546875 575.011719 356.988281 576.789062 347.335938 C 485.191406 408.609375 405.957031 486.582031 343.214844 577.179688 Z M 343.214844 577.179688 " style=" stroke:none;fill-rule:nonzero;fill:rgb(16.470588%,40%,61.960784%);fill-opacity:1;" />
<path d="M 580.609375 271.347656 C 579.988281 263.804688 579.117188 256.332031 577.925781 248.960938 C 450.722656 339.230469 339.652344 450.304688 249.378906 577.503906 C 256.753906 578.699219 264.1875 579.566406 271.765625 580.1875 C 357.507812 461.359375 461.789062 357.078125 580.609375 271.347656 Z M 580.609375 271.347656 " style=" stroke:none;fill-rule:nonzero;fill:rgb(16.470588%,40%,61.960784%);fill-opacity:1;" />
<path d="M 392.234375 27.644531 C 392.460938 27.328125 392.667969 27.003906 392.855469 26.660156 L 393.28125 25.886719 C 386.84375 23.511719 380.28125 21.535156 373.628906 19.621094 C 276.097656 154.019531 155.324219 269.917969 17.019531 361.835938 C 18.636719 368.609375 20.464844 375.300781 22.558594 381.875 C 166.3125 287.269531 291.597656 167.226562 392.234375 27.644531 Z M 392.234375 27.644531 " style=" stroke:none;fill-rule:nonzero;fill:rgb(16.470588%,40%,61.960784%);fill-opacity:1;" />
<path d="M 486.960938 83.664062 L 487.582031 82.828125 C 482.695312 78.394531 477.613281 74.1875 472.429688 70.101562 L 471.046875 71.976562 C 359.214844 225.1875 221.480469 357.691406 64.046875 463.511719 C 67.945312 468.839844 72.011719 474.035156 76.246094 479.085938 C 235.074219 372.125 374.0625 238.316406 486.960938 83.664062 Z M 486.960938 83.664062 " style=" stroke:none;fill-rule:nonzero;fill:rgb(16.470588%,40%,61.960784%);fill-opacity:1;" />
<path d="M 280.730469 14.300781 L 284.371094 8.976562 C 275.359375 9.324219 266.476562 10.082031 257.71875 11.25 C 186.082031 99.230469 104.011719 178.183594 13.316406 246.363281 C 11.816406 255.140625 10.71875 264.023438 10.039062 273.015625 L 14.976562 269.835938 C 114.289062 196.5625 203.625 110.664062 280.730469 14.300781 Z M 280.730469 14.300781 " style=" stroke:none;fill-rule:nonzero;fill:rgb(16.470588%,40%,61.960784%);fill-opacity:1;" />
<path d="M 578.761719 11.59375 C 550.648438 -16.519531 486.960938 11.800781 438.875 40.222656 L 432.363281 43.636719 C 439.082031 47.308594 445.617188 51.269531 451.996094 55.484375 C 518.359375 16.875 553.796875 14.546875 564.804688 25.5625 C 594.515625 55.273438 516.976562 199.03125 358.207031 357.800781 C 199.4375 516.570312 55.703125 594.066406 25.972656 564.386719 C 15.042969 553.417969 17.246094 518.058594 55.882812 451.566406 C 51.734375 445.230469 47.847656 438.722656 44.203125 432.050781 L 40.097656 439.40625 C 11.886719 487.386719 -15.882812 550.4375 12.015625 578.34375 C 20.800781 586.457031 32.515625 590.632812 44.449219 589.921875 C 115.917969 589.921875 256.625 487.261719 372.175781 371.769531 C 509.59375 234.378906 628.632812 61.464844 578.761719 11.59375 Z M 578.761719 11.59375 " style=" stroke:none;fill-rule:nonzero;fill:rgb(41.176471%,80%,84.313725%);fill-opacity:1;" />
</g>
</svg>