<svg xmlns="http://www.w3.org/2000/svg" height="573pt" version="1.1" viewBox="0 0 573.20044 573" width="573pt">
<g id="surface1">
<path d="M 572.214844 286.207031 C 572.214844 444.222656 444.121094 572.316406 286.109375 572.316406 C 128.09375 572.316406 0 444.222656 0 286.207031 C 0 128.195312 128.09375 0.101562 286.109375 0.101562 C 444.121094 0.101562 572.214844 128.195312 572.214844 286.207031 Z M 572.214844 286.207031 " style=" stroke:none;fill-rule:nonzero;fill:rgb(16.470588%,56.470588%,87.058824%);fill-opacity:1;" />
<path d="M 463.632812 61.929688 C 463.632812 62.699219 463.691406 63.457031 463.691406 64.226562 C 463.671875 280.089844 306.746094 463.921875 93.566406 497.832031 C 210.050781 604.597656 391.03125 596.726562 497.800781 480.25 C 604.566406 363.773438 596.703125 182.777344 480.21875 76.007812 C 474.871094 71.101562 469.335938 66.40625 463.632812 61.929688 Z M 463.632812 61.929688 " style=" stroke:none;fill-rule:nonzero;fill:rgb(14.901961%,51.372549%,78.823529%);fill-opacity:1;" />
<path d="M 246.644531 375 C 246.644531 347.757812 215.726562 325.671875 177.585938 325.671875 C 139.441406 325.671875 108.523438 347.757812 108.523438 375 C 108.523438 402.242188 139.441406 424.328125 177.585938 424.328125 C 215.726562 424.328125 246.644531 402.242188 246.644531 375 Z M 246.644531 375 " style=" stroke:none;fill-rule:nonzero;fill:rgb(13.72549%,47.45098%,72.941176%);fill-opacity:1;" />
<path d="M 378.414062 325.988281 C 345.71875 325.789062 313.800781 315.964844 286.660156 297.730469 C 256.105469 277.320312 220.175781 266.4375 183.425781 266.476562 L 181.609375 266.476562 C 144.871094 266.4375 108.9375 277.316406 78.382812 297.730469 C 55.730469 312.804688 29.734375 322.097656 2.664062 324.800781 C 3.550781 331.351562 4.589844 337.855469 5.898438 344.246094 C 35.722656 341.070312 64.34375 330.742188 89.335938 314.148438 C 116.644531 295.894531 148.765625 286.175781 181.609375 286.207031 L 183.425781 286.207031 C 216.457031 286.207031 248.746094 296.042969 276.164062 314.460938 C 306.402344 334.667969 341.917969 345.539062 378.285156 345.71875 L 562.351562 346.644531 L 565.765625 346.644531 C 567.167969 340.105469 568.339844 333.484375 569.296875 326.773438 Z M 378.414062 325.988281 " style=" stroke:none;fill-rule:nonzero;fill:rgb(16.470588%,40%,61.960784%);fill-opacity:1;" />
<path d="M 275.699219 435.851562 C 248.390625 454.105469 216.269531 463.820312 183.425781 463.792969 L 181.609375 463.792969 C 148.765625 463.824219 116.644531 454.105469 89.335938 435.851562 C 71.8125 424.171875 52.4375 415.546875 32.035156 410.347656 L 30.78125 415.28125 C 33.9375 421.527344 37.273438 427.664062 40.875 433.621094 C 54.113281 438.242188 66.703125 444.503906 78.363281 452.289062 C 108.929688 472.703125 144.859375 483.574219 181.609375 483.523438 L 183.425781 483.523438 C 220.351562 483.523438 256.441406 472.535156 287.09375 451.953125 C 314.105469 433.910156 345.828125 424.191406 378.3125 424.011719 L 536.679688 424.269531 C 540.230469 417.855469 543.496094 411.265625 546.546875 404.539062 L 378.265625 404.261719 C 341.710938 404.488281 306.046875 415.46875 275.699219 435.851562 Z M 275.699219 435.851562 " style=" stroke:none;fill-rule:nonzero;fill:rgb(16.470588%,40%,61.960784%);fill-opacity:1;" />
<path d="M 141.160156 532.851562 L 431.054688 532.851562 C 441.199219 526.882812 450.957031 520.292969 460.289062 513.121094 L 111.929688 513.121094 C 121.261719 520.285156 131.019531 526.875 141.160156 532.851562 Z M 141.160156 532.851562 " style=" stroke:none;fill-rule:nonzero;fill:rgb(16.470588%,40%,61.960784%);fill-opacity:1;" />
<path d="M 322.949219 221.734375 C 396.132812 238.457031 471.949219 240.113281 545.796875 226.597656 L 565.042969 223.046875 L 565.132812 223.046875 C 563.671875 216.59375 562.035156 210.222656 560.199219 203.945312 L 542.3125 207.203125 C 471.09375 220.246094 397.957031 218.648438 327.367188 202.515625 C 254.753906 185.933594 179.546875 184.164062 106.246094 197.347656 L 9.015625 214.679688 C 7.25 221.515625 5.828125 228.492188 4.566406 235.515625 L 109.667969 216.773438 C 180.367188 204.066406 252.910156 205.753906 322.949219 221.734375 Z M 322.949219 221.734375 " style=" stroke:none;fill-rule:nonzero;fill:rgb(16.470588%,40%,61.960784%);fill-opacity:1;" />
<path d="M 112.875 96.636719 C 118.980469 97.652344 125.066406 98.796875 131.15625 100.078125 C 162.636719 106.738281 194.730469 110.09375 226.914062 110.113281 C 259.09375 110.09375 291.1875 106.738281 322.671875 100.078125 C 378.316406 88.328125 435.703125 87.382812 491.710938 97.308594 L 502.398438 99.042969 C 495.265625 90.777344 487.65625 82.914062 479.625 75.515625 C 426.054688 67.828125 371.554688 69.605469 318.605469 80.773438 C 258.148438 93.578125 195.679688 93.578125 135.222656 80.773438 C 128.878906 79.460938 122.511719 78.257812 116.128906 77.171875 C 108.582031 75.929688 100.964844 75.140625 93.320312 74.8125 C 86.445312 81.097656 79.882812 87.707031 73.636719 94.632812 C 86.75 93.882812 99.910156 94.554688 112.875 96.636719 Z M 112.875 96.636719 " style=" stroke:none;fill-rule:nonzero;fill:rgb(16.470588%,40%,61.960784%);fill-opacity:1;" />
<path d="M 246.644531 375 C 246.644531 347.757812 215.726562 325.671875 177.585938 325.671875 C 139.441406 325.671875 108.523438 347.757812 108.523438 375 C 108.523438 402.242188 139.441406 424.328125 177.585938 424.328125 C 215.726562 424.328125 246.644531 402.242188 246.644531 375 Z M 246.644531 375 " style=" stroke:none;fill-rule:nonzero;fill:rgb(13.72549%,47.45098%,72.941176%);fill-opacity:1;" />
<path d="M 378.414062 325.988281 C 345.71875 325.789062 313.800781 315.964844 286.660156 297.730469 C 256.105469 277.320312 220.175781 266.4375 183.425781 266.476562 L 181.609375 266.476562 C 144.871094 266.4375 108.9375 277.316406 78.382812 297.730469 C 55.730469 312.804688 29.734375 322.097656 2.664062 324.800781 C 3.550781 331.351562 4.589844 337.855469 5.898438 344.246094 C 35.722656 341.070312 64.34375 330.742188 89.335938 314.148438 C 116.644531 295.894531 148.765625 286.175781 181.609375 286.207031 L 183.425781 286.207031 C 216.457031 286.207031 248.746094 296.042969 276.164062 314.460938 C 306.402344 334.667969 341.917969 345.539062 378.285156 345.71875 L 562.351562 346.644531 L 565.765625 346.644531 C 567.167969 340.105469 568.339844 333.484375 569.296875 326.773438 Z M 378.414062 325.988281 " style=" stroke:none;fill-rule:nonzero;fill:rgb(16.470588%,40%,61.960784%);fill-opacity:1;" />
<path d="M 275.699219 435.851562 C 248.390625 454.105469 216.269531 463.820312 183.425781 463.792969 L 181.609375 463.792969 C 148.765625 463.824219 116.644531 454.105469 89.335938 435.851562 C 71.8125 424.171875 52.4375 415.546875 32.035156 410.347656 L 30.78125 415.28125 C 33.9375 421.527344 37.273438 427.664062 40.875 433.621094 C 54.113281 438.242188 66.703125 444.503906 78.363281 452.289062 C 108.929688 472.703125 144.859375 483.574219 181.609375 483.523438 L 183.425781 483.523438 C 220.351562 483.523438 256.441406 472.535156 287.09375 451.953125 C 314.105469 433.910156 345.828125 424.191406 378.3125 424.011719 L 536.679688 424.269531 C 540.230469 417.855469 543.496094 411.265625 546.546875 404.539062 L 378.265625 404.261719 C 341.710938 404.488281 306.046875 415.46875 275.699219 435.851562 Z M 275.699219 435.851562 " style=" stroke:none;fill-rule:nonzero;fill:rgb(16.470588%,40%,61.960784%);fill-opacity:1;" />
<path d="M 141.160156 532.851562 L 431.054688 532.851562 C 441.199219 526.882812 450.957031 520.292969 460.289062 513.121094 L 111.929688 513.121094 C 121.261719 520.285156 131.019531 526.875 141.160156 532.851562 Z M 141.160156 532.851562 " style=" stroke:none;fill-rule:nonzero;fill:rgb(16.470588%,40%,61.960784%);fill-opacity:1;" />
<path d="M 322.949219 221.734375 C 396.132812 238.457031 471.949219 240.113281 545.796875 226.597656 L 565.042969 223.046875 L 565.132812 223.046875 C 563.671875 216.59375 562.035156 210.222656 560.199219 203.945312 L 542.3125 207.203125 C 471.09375 220.246094 397.957031 218.648438 327.367188 202.515625 C 254.753906 185.933594 179.546875 184.164062 106.246094 197.347656 L 9.015625 214.679688 C 7.25 221.515625 5.828125 228.492188 4.566406 235.515625 L 109.667969 216.773438 C 180.367188 204.066406 252.910156 205.753906 322.949219 221.734375 Z M 322.949219 221.734375 " style=" stroke:none;fill-rule:nonzero;fill:rgb(16.470588%,40%,61.960784%);fill-opacity:1;" />
<path d="M 112.875 96.636719 C 118.980469 97.652344 125.066406 98.796875 131.15625 100.078125 C 162.636719 106.738281 194.730469 110.09375 226.914062 110.113281 C 259.09375 110.09375 291.1875 106.738281 322.671875 100.078125 C 378.316406 88.328125 435.703125 87.382812 491.710938 97.308594 L 502.398438 99.042969 C 495.265625 90.777344 487.65625 82.914062 479.625 75.515625 C 426.054688 67.828125 371.554688 69.605469 318.605469 80.773438 C 258.148438 93.578125 195.679688 93.578125 135.222656 80.773438 C 128.878906 79.460938 122.511719 78.257812 116.128906 77.171875 C 108.582031 75.929688 100.964844 75.140625 93.320312 74.8125 C 86.445312 81.097656 79.882812 87.707031 73.636719 94.632812 C 86.75 93.882812 99.910156 94.554688 112.875 96.636719 Z M 112.875 96.636719 " style=" stroke:none;fill-rule:nonzero;fill:rgb(16.470588%,40%,61.960784%);fill-opacity:1;" />
</g>
</svg>